<svg width="1024" height="1024" viewBox="0 0 1024 1024" fill="none" xmlns="http://www.w3.org/2000/svg">
<defs>
  <linearGradient id="mono_bg" x1="0%" y1="0%" x2="100%" y2="100%">
    <stop offset="0%" stop-color="#24272D"/>
    <stop offset="40%" stop-color="#16181C"/>
    <stop offset="100%" stop-color="#0E0F12"/>
  </linearGradient>
  <linearGradient id="mono_border" x1="0%" y1="0%" x2="100%" y2="100%">
    <stop offset="0%" stop-color="#3F4552" stop-opacity="0.9"/>
    <stop offset="100%" stop-color="#1A1C22" stop-opacity="0.4"/>
  </linearGradient>

  <linearGradient id="chrome_high" x1="20%" y1="0%" x2="80%" y2="100%">
    <stop offset="0%" stop-color="#FFFFFF"/>
    <stop offset="30%" stop-color="#F0F4F8"/>
    <stop offset="55%" stop-color="#A2ABB8"/>
    <stop offset="85%" stop-color="#E2E7ED"/>
    <stop offset="100%" stop-color="#FFFFFF"/>
  </linearGradient>

  <linearGradient id="chrome_rim" x1="0%" y1="0%" x2="100%" y2="100%">
    <stop offset="0%" stop-color="#FFFFFF" stop-opacity="1.0"/>
    <stop offset="50%" stop-color="#7A8492" stop-opacity="0.6"/>
    <stop offset="100%" stop-color="#FFFFFF" stop-opacity="0.9"/>
  </linearGradient>

  <filter id="pure_glow" x="-20%" y="-20%" width="140%" height="140%" filterUnits="userSpaceOnUse">
    <feDropShadow dx="0" dy="10" stdDeviation="18" flood-color="#FFFFFF" flood-opacity="0.32"/>
    <feDropShadow dx="0" dy="22" stdDeviation="28" flood-color="#000000" flood-opacity="0.75"/>
  </filter>
</defs>

<rect x="18" y="18" width="988" height="988" rx="150" fill="url(#mono_bg)" stroke="url(#mono_border)" stroke-width="14"/>

<!-- 纯粹徽标：放大 21 倍，占据核心黄金视觉区域，呼应 Zed 和 DBeaver 的极简单体雕塑感 -->
<g transform="translate(512, 516) scale(21.5) translate(-25.8, -32)" filter="url(#pure_glow)">
  <path d="M17.0001 29.3856H19.9789V19.6144H17.0001V17H25.8391V19.6144H22.8603V29.3856H25.8391V32H17.0001V29.3856Z" fill="url(#chrome_high)" stroke="url(#chrome_rim)" stroke-width="0.4" stroke-linejoin="round"/>
  <path d="M27.3391 29.3002H29.4928C29.9282 29.3002 30.3161 29.2074 30.6553 29.0218C30.9945 28.8361 31.2569 28.5737 31.4426 28.2345C31.6282 27.8953 31.721 27.508 31.721 27.072V17H34.646V27.2748C34.646 28.1749 34.4386 28.984 34.0243 29.7019C33.6101 30.4198 33.0388 30.9824 32.31 31.3892C31.5812 31.7966 30.7636 32 29.8566 32H27.3391V29.3002Z" fill="url(#chrome_high)" stroke="url(#chrome_rim)" stroke-width="0.4" stroke-linejoin="round"/>
  <path d="M33 44H17V47H33V44Z" fill="url(#chrome_high)" stroke="url(#chrome_rim)" stroke-width="0.4" stroke-linejoin="round"/>
</g>
</svg>